<?xml version="1.0" standalone="no"?>
<!DOCTYPE svg PUBLIC "-//W3C//DTD SVG 20010904//EN"
 "http://www.w3.org/TR/2001/REC-SVG-20010904/DTD/svg10.dtd">
<svg version="1.0" xmlns="http://www.w3.org/2000/svg"
 width="1080.000000pt" height="1080.000000pt" viewBox="0 0 1080.000000 1080.000000"
 preserveAspectRatio="xMidYMid meet">

<g transform="translate(0.000000,1080.000000) scale(0.100000,-0.100000)"
fill="#000000" stroke="none">
<path d="M5390 9260 l0 -150 100 0 c82 0 100 3 100 15 0 12 -15 15 -75 15
l-75 0 0 56 0 57 65 -5 c59 -5 65 -4 65 13 0 17 -8 19 -65 19 l-65 0 0 45 0
45 75 0 c56 0 75 3 75 14 0 13 -83 26 -167 26 l-33 0 0 -150z"/>
<path d="M4477 9377 c-12 -15 -14 -23 -6 -26 7 -2 16 4 21 13 7 12 19 15 51
10 41 -5 41 -5 17 10 -35 21 -62 19 -83 -7z"/>
<path d="M5029 9377 c-27 -18 -35 -31 -37 -59 -4 -44 24 -67 110 -92 47 -13
59 -21 64 -41 9 -37 -11 -55 -62 -55 -33 0 -47 5 -56 20 -12 19 -58 29 -58 12
0 -18 31 -50 59 -62 76 -31 182 26 166 89 -10 40 -23 50 -97 72 -74 23 -96 45
-79 78 20 37 100 34 114 -3 4 -9 16 -16 28 -16 15 0 19 4 15 16 -3 9 -6 20 -6
25 0 15 -57 39 -93 39 -19 0 -49 -10 -68 -23z"/>
<path d="M5640 9388 c0 -11 14 -18 46 -23 l46 -6 -6 -47 c-3 -26 -8 -86 -11
-133 l-7 -87 25 5 c24 5 24 8 31 126 4 67 10 125 13 130 3 5 25 6 49 2 40 -6
44 -4 44 14 0 18 -6 21 -47 21 -27 0 -78 3 -115 7 -57 5 -68 3 -68 -9z"/>
<path d="M4793 9361 c-73 -12 -93 -19 -93 -32 0 -13 8 -15 43 -12 l44 5 16
-94 c9 -51 19 -109 22 -129 5 -31 9 -36 25 -32 24 6 24 18 5 143 -19 124 -20
117 22 127 23 5 39 15 41 26 4 20 0 20 -125 -2z"/>
<path d="M6105 9341 c-61 -19 -85 -59 -92 -154 -5 -71 -5 -75 23 -106 23 -25
39 -33 81 -38 48 -5 54 -4 82 25 36 35 38 48 11 55 -13 3 -24 -3 -35 -19 -23
-35 -88 -34 -111 1 -15 22 -15 35 -6 91 14 84 33 114 73 114 41 0 65 -15 73
-44 3 -14 15 -30 26 -36 18 -10 20 -8 20 20 0 37 -47 90 -78 90 -11 0 -26 2
-34 4 -7 2 -22 1 -33 -3z"/>
<path d="M4505 9310 c-65 -26 -89 -104 -60 -195 35 -113 137 -140 215 -57 21
22 25 36 24 83 -2 127 -88 207 -179 169z m93 -53 c29 -30 50 -126 36 -164 -19
-55 -101 -56 -129 -3 -8 16 -18 56 -21 88 -6 52 -4 62 15 81 28 28 72 27 99
-2z"/>
<path d="M6347 9250 c-40 -34 -71 -127 -61 -178 10 -49 52 -84 117 -97 27 -6
85 22 103 49 23 37 45 127 38 163 -4 20 -20 45 -40 63 -49 42 -109 42 -157 0z
m136 -32 c21 -25 21 -49 2 -114 -20 -67 -51 -96 -93 -88 -17 4 -36 12 -42 19
-31 38 -7 160 38 195 31 25 68 20 95 -12z"/>
<path d="M4192 9221 c-34 -10 -65 -20 -67 -23 -2 -2 6 -35 19 -74 13 -38 32
-98 41 -132 18 -62 37 -84 56 -65 6 6 4 27 -5 56 -16 54 -12 59 51 76 81 22
108 97 54 152 -34 34 -58 36 -149 10z m112 -37 c37 -37 7 -90 -56 -101 -35 -5
-36 -4 -52 43 -17 50 -14 59 19 67 41 10 74 7 89 -9z"/>
<path d="M3946 9214 c-18 -17 -21 -44 -6 -44 5 0 16 14 25 30 17 32 6 40 -19
14z"/>
<path d="M6606 9085 c-25 -75 -46 -139 -46 -144 0 -5 9 -11 19 -14 16 -4 23 7
46 72 15 42 29 82 31 89 7 22 28 8 36 -24 4 -16 15 -66 25 -111 13 -65 21 -83
37 -87 11 -3 21 -4 23 -2 9 9 99 276 95 281 -3 3 -13 5 -23 5 -13 0 -23 -18
-40 -67 -12 -38 -29 -78 -37 -91 l-15 -23 -12 28 c-6 15 -18 64 -25 107 -12
74 -34 116 -59 116 -5 0 -29 -61 -55 -135z"/>
<path d="M4000 9158 c-14 -6 -44 -19 -67 -29 -24 -11 -47 -19 -53 -19 -5 0
-10 -1 -10 -3 0 -6 101 -269 105 -275 3 -4 169 58 177 66 4 4 4 12 0 19 -5 8
-24 4 -66 -13 -33 -13 -64 -24 -71 -24 -6 0 -18 20 -28 45 l-16 46 45 19 c25
11 50 20 54 20 12 0 22 18 16 29 -4 5 -33 0 -66 -11 -33 -12 -63 -18 -66 -15
-3 3 -8 23 -11 44 l-5 39 62 25 c34 13 63 29 64 34 2 14 -34 16 -64 3z"/>
<path d="M6951 9061 c-36 -36 -28 -75 29 -135 50 -53 60 -82 38 -104 -32 -32
-108 5 -108 52 0 28 -38 44 -47 20 -16 -43 54 -112 126 -121 33 -5 44 -1 65
20 40 40 34 69 -29 137 -30 33 -55 66 -55 73 0 8 9 22 21 33 20 18 21 18 57
-1 26 -14 38 -28 40 -47 3 -28 31 -46 43 -27 4 7 2 25 -3 40 -22 64 -135 102
-177 60z"/>
<path d="M3695 9026 c-22 -7 -54 -20 -72 -29 l-32 -17 45 -98 c25 -53 53 -114
61 -134 8 -21 17 -38 19 -38 3 0 32 14 65 30 64 33 99 76 99 122 0 37 -47 134
-73 151 -35 22 -69 26 -112 13z m60 -38 c33 -15 75 -95 75 -143 0 -29 -6 -39
-32 -55 -18 -11 -38 -20 -44 -20 -12 0 -94 167 -94 192 0 9 12 21 28 26 36 14
37 14 67 0z"/>
<path d="M7164 8849 c-51 -102 -63 -134 -52 -140 7 -5 18 -9 23 -8 6 0 39 58
75 130 55 109 63 131 50 139 -8 5 -18 10 -22 10 -5 0 -37 -59 -74 -131z"/>
<path d="M7350 8877 c-32 -16 -98 -111 -106 -152 -13 -72 59 -145 143 -145 37
0 40 3 62 47 l23 47 -24 18 c-46 35 -87 36 -55 0 21 -23 21 -41 2 -66 -13 -18
-17 -18 -52 -5 -49 19 -70 58 -53 100 28 67 68 117 100 124 43 9 80 -16 80
-55 0 -40 36 -61 42 -26 8 40 -17 83 -61 105 -46 24 -66 26 -101 8z"/>
<path d="M3344 8844 c-52 -18 -84 -56 -84 -100 0 -28 6 -38 33 -55 21 -13 40
-18 57 -13 14 3 48 8 77 11 45 4 53 2 63 -17 25 -48 -54 -100 -107 -72 -26 14
-60 -10 -39 -27 28 -23 81 -24 124 -2 73 37 94 97 48 140 -23 22 -30 23 -109
16 -68 -5 -86 -4 -96 9 -18 21 -10 46 22 70 23 17 32 19 57 9 22 -8 33 -8 45
1 14 10 14 14 3 23 -23 18 -54 21 -94 7z"/>
<path d="M7613 8743 c-4 -10 -9 -20 -13 -23 -8 -6 -111 -158 -126 -186 -9 -17
-8 -23 7 -32 16 -10 24 -2 66 63 31 47 55 74 67 74 20 1 20 0 0 -170 -6 -51
-5 -56 19 -72 l25 -16 40 62 c23 34 59 88 82 121 31 46 38 62 29 72 -6 8 -15
14 -19 14 -4 0 -31 -34 -59 -75 -29 -41 -57 -75 -63 -75 -8 0 -9 35 -4 116 6
104 4 118 -11 130 -24 18 -32 17 -40 -3z"/>
<path d="M3090 8683 c-41 -30 -77 -56 -79 -59 -2 -2 25 -44 60 -93 35 -49 73
-103 84 -120 l21 -30 82 56 c45 30 82 59 82 63 0 24 -26 17 -81 -21 l-61 -43
-19 24 c-46 59 -46 63 19 104 23 14 42 30 42 36 0 22 -23 19 -59 -9 -49 -39
-64 -39 -91 0 -21 29 -21 31 -5 50 10 10 22 19 27 19 5 0 14 5 21 10 7 6 23
18 36 28 19 15 21 20 10 29 -11 9 -31 -1 -89 -44z"/>
<path d="M5377 8693 c-1 -1 -81 -6 -177 -13 -253 -15 -443 -47 -672 -110 -104
-29 -285 -89 -333 -110 -11 -5 -49 -21 -85 -36 -128 -52 -361 -176 -503 -268
-80 -52 -152 -99 -159 -105 -7 -6 -49 -39 -93 -73 -183 -145 -419 -380 -559
-558 -268 -340 -460 -715 -587 -1149 -46 -157 -50 -198 -10 -91 70 183 274
587 303 598 4 2 8 7 8 12 0 5 23 41 50 82 28 40 56 81 63 91 171 255 510 599
789 803 40 30 84 62 98 72 130 98 534 318 720 391 207 82 384 134 680 201 230
52 761 84 985 60 50 -5 152 -17 229 -25 304 -33 648 -125 961 -257 66 -28 126
-55 133 -61 7 -5 15 -8 17 -5 14 14 -457 267 -545 293 -14 4 -43 16 -65 26
-150 67 -527 166 -756 198 -107 15 -486 41 -492 34z"/>
<path d="M2865 8511 c-16 -10 -46 -32 -65 -48 l-34 -30 93 -111 92 -112 27 17
c107 66 128 144 61 229 -55 71 -118 91 -174 55z m85 -38 c58 -41 96 -107 81
-145 -10 -28 -46 -61 -59 -57 -11 4 -142 160 -142 169 0 10 65 50 80 50 9 0
27 -8 40 -17z"/>
<path d="M7927 8500 c-14 -11 -28 -20 -31 -20 -4 0 -37 -20 -74 -44 -37 -24
-82 -52 -101 -64 -33 -19 -33 -20 -12 -31 17 -10 27 -9 51 5 29 17 29 17 74
-20 49 -40 52 -46 35 -78 -9 -16 -8 -24 5 -36 8 -9 18 -14 20 -11 3 3 28 68
55 146 47 134 49 142 32 157 -22 20 -23 20 -54 -4z m13 -55 c0 -2 -9 -29 -21
-60 l-21 -55 -28 17 c-44 26 -43 40 3 72 38 27 67 39 67 26z"/>
<path d="M8101 8386 c-8 -10 -5 -18 14 -36 14 -13 25 -30 25 -38 0 -8 -36 -55
-81 -104 -68 -74 -79 -91 -69 -104 7 -8 16 -13 20 -12 4 2 42 42 84 91 43 48
85 87 94 87 9 0 27 -11 41 -24 21 -19 28 -22 37 -12 9 10 -7 30 -71 89 -65 60
-85 74 -94 63z"/>
<path d="M2553 8240 l-70 -68 106 -106 106 -106 70 70 c47 47 66 73 59 80 -7
7 -27 -7 -62 -42 l-52 -52 -35 34 c-19 19 -35 37 -35 41 0 4 19 26 42 48 34
32 40 43 30 53 -10 10 -20 4 -50 -25 -21 -20 -45 -37 -53 -37 -16 0 -59 40
-59 54 0 4 23 28 50 53 52 47 58 58 37 66 -7 3 -45 -26 -84 -63z"/>
<path d="M8217 8093 c-96 -95 -106 -108 -92 -122 13 -13 26 -4 117 84 57 55
104 105 106 111 2 6 -3 16 -10 22 -11 8 -38 -13 -121 -95z"/>
<path d="M2400 8073 c-22 -8 -70 -65 -77 -92 -9 -34 8 -73 39 -90 26 -15 31
-14 88 17 65 34 98 40 118 20 18 -18 15 -42 -9 -72 -17 -21 -29 -27 -54 -25
-34 3 -69 -16 -59 -32 3 -5 24 -9 46 -9 35 0 47 6 84 44 53 52 58 89 18 130
-34 33 -45 33 -122 -4 -89 -42 -112 -38 -112 19 0 29 45 64 73 57 31 -7 60 20
36 35 -15 10 -45 11 -69 2z"/>
<path d="M8359 8047 c-70 -32 -119 -95 -119 -154 0 -53 45 -109 94 -118 68
-13 178 66 191 139 18 95 -79 173 -166 133z m108 -53 c32 -32 26 -75 -19 -121
-79 -82 -168 -75 -168 12 0 27 9 43 43 76 67 65 103 74 144 33z"/>
<path d="M2225 7853 c-32 -8 -75 -54 -87 -95 -9 -31 -8 -41 6 -63 33 -51 78
-47 168 16 14 11 33 19 41 19 21 0 47 -27 47 -49 0 -30 -46 -71 -78 -71 -30 0
-58 -21 -45 -33 3 -4 22 -7 41 -7 46 0 107 60 117 114 6 31 4 41 -16 62 -36
38 -86 29 -174 -32 -11 -8 -25 -14 -32 -14 -17 0 -43 29 -43 49 0 27 38 61 68
61 16 0 32 8 40 20 7 11 8 20 3 20 -5 0 -15 2 -23 4 -7 2 -22 1 -33 -1z"/>
<path d="M8565 7809 c-27 -22 -76 -58 -107 -80 -58 -40 -65 -52 -49 -78 7 -11
24 -1 79 43 74 58 108 71 97 37 -3 -11 -24 -61 -45 -112 -37 -85 -39 -94 -24
-110 15 -17 20 -15 87 33 146 105 166 123 152 142 -12 16 -20 12 -91 -38 -42
-31 -81 -56 -86 -56 -11 0 -8 11 41 130 30 75 36 99 27 112 -15 25 -24 22 -81
-23z"/>
<path d="M2037 7633 c-18 -17 2 -38 110 -112 100 -68 120 -78 132 -67 7 8 10
19 7 24 -7 12 -134 102 -143 102 -3 0 -22 14 -43 30 -39 31 -51 35 -63 23z"/>
<path d="M8750 7540 c-21 -19 -22 -24 -15 -114 l7 -95 -27 -7 c-37 -9 -75 28
-75 72 0 18 5 36 10 39 11 7 -5 45 -19 45 -17 0 -33 -60 -26 -97 9 -48 63
-103 102 -103 50 0 73 25 73 78 0 26 -4 64 -9 85 -7 30 -5 42 9 59 15 20 21
21 44 10 37 -16 53 -54 37 -88 -9 -20 -9 -30 0 -40 19 -23 39 3 39 50 0 92
-91 157 -150 106z"/>
<path d="M1918 7444 c-10 -21 -4 -31 48 -94 32 -39 76 -93 97 -121 36 -46 40
-49 52 -32 11 15 10 22 -6 44 -24 34 -24 34 9 86 26 42 29 44 65 40 29 -4 39
-1 47 14 9 15 6 19 -12 23 -13 3 -57 13 -98 22 -209 46 -190 45 -202 18z m136
-46 c22 -6 43 -13 45 -15 6 -4 -32 -73 -40 -73 -8 0 -79 85 -79 94 0 9 29 7
74 -6z"/>
<path d="M1791 7215 c-25 -29 -31 -44 -31 -83 0 -57 23 -84 107 -126 62 -31
87 -32 130 -6 37 22 50 43 59 97 5 33 2 44 -19 68 -24 28 -24 29 -35 8 -9 -16
-8 -24 3 -33 21 -17 19 -73 -3 -93 -28 -26 -81 -20 -139 13 -60 35 -77 59 -68
100 8 35 17 42 65 50 22 3 36 12 38 23 3 14 -4 17 -36 17 -33 0 -45 -6 -71
-35z"/>
<path d="M3128 6990 c-231 -42 -368 -185 -418 -433 -18 -90 -20 -141 -20 -556
0 -426 1 -464 21 -556 47 -226 162 -358 355 -410 34 -10 109 -18 177 -19 132
-4 227 15 307 61 52 30 140 111 140 130 0 7 4 13 9 13 19 0 73 158 86 250 l7
45 -156 -3 c-171 -3 -158 3 -171 -75 -15 -89 -126 -157 -237 -144 -105 13
-155 62 -189 184 -17 61 -19 109 -19 525 0 300 4 475 11 510 29 136 106 208
223 208 119 0 199 -67 220 -182 l7 -38 154 0 c101 0 155 4 155 10 0 30 -33
166 -51 207 -49 115 -148 207 -269 249 -78 28 -256 40 -342 24z"/>
<path d="M7163 6989 c-212 -35 -353 -171 -410 -395 -16 -62 -18 -124 -18 -589
0 -465 2 -527 18 -589 53 -210 185 -346 372 -387 73 -16 284 -16 342 0 199 53
315 194 351 424 l9 57 -152 0 -151 0 -13 -48 c-27 -105 -89 -159 -195 -169
-57 -5 -72 -3 -119 21 -67 32 -101 79 -121 166 -22 92 -23 941 -2 1042 27 124
91 187 199 195 98 8 179 -32 217 -107 10 -20 21 -53 25 -73 l7 -37 149 0 149
0 0 33 c-1 107 -72 270 -149 337 -63 56 -59 54 -132 83 -109 44 -249 57 -376
36z"/>
<path d="M5458 6007 l-3 -967 488 0 487 0 0 155 0 155 -322 2 -323 3 -3 235
c-1 129 0 245 3 258 l5 22 295 0 295 0 0 145 0 145 -289 0 c-233 0 -291 3
-300 14 -8 9 -11 83 -9 247 l3 234 323 3 322 2 0 158 0 157 -485 0 -485 0 -2
-968z"/>
<path d="M4060 6005 l0 -965 328 0 c230 1 345 5 387 14 185 40 294 152 344
356 20 78 21 111 21 592 0 485 -1 514 -21 596 -12 48 -33 109 -46 136 -53 106
-160 187 -289 220 -50 13 -123 16 -393 16 l-331 0 0 -965z m607 642 c46 -18
92 -63 116 -115 21 -46 22 -60 25 -510 3 -512 1 -532 -58 -604 -43 -52 -99
-68 -235 -68 l-112 0 -6 377 c-9 470 -9 896 -1 917 5 13 25 16 123 15 64 0
130 -6 148 -12z"/>
<path d="M8742 4118 c-22 -11 -65 -89 -77 -138 -6 -25 -2 -27 132 -76 l138
-50 23 65 c29 85 28 104 -8 145 -48 54 -151 81 -208 54z m135 -57 c23 -11 47
-29 53 -41 15 -27 4 -89 -16 -97 -20 -8 -198 61 -202 78 -1 8 7 29 18 47 17
28 25 32 62 32 24 0 62 -9 85 -19z"/>
<path d="M1975 4068 c-71 -28 -132 -52 -134 -54 -2 -2 9 -34 24 -70 42 -99 90
-122 188 -88 56 19 107 73 107 113 0 39 -36 152 -49 150 -3 0 -64 -23 -136
-51z m135 -27 c18 -35 12 -80 -15 -105 -26 -24 -86 -46 -127 -46 -29 0 -64 34
-73 70 -5 24 -1 27 92 62 54 20 101 37 105 37 4 1 12 -8 18 -18z"/>
<path d="M8605 3839 c-4 -11 -5 -22 -3 -24 1 -1 41 -22 87 -45 59 -29 80 -45
73 -52 -6 -6 -59 -15 -119 -20 -104 -9 -122 -16 -123 -46 0 -7 55 -39 123 -70
67 -32 126 -60 131 -63 5 -2 12 6 17 17 7 20 -1 26 -77 63 -120 58 -115 65 49
76 91 6 99 9 109 31 6 13 9 25 7 27 -5 3 -91 43 -184 87 -38 19 -73 35 -77 37
-4 2 -10 -6 -13 -18z"/>
<path d="M2200 3804 c-14 -7 -71 -35 -127 -61 -57 -26 -103 -50 -103 -55 0
-23 82 -168 95 -168 19 0 19 -1 -10 62 -34 72 -32 84 15 108 l40 20 27 -55
c15 -30 33 -55 40 -55 18 0 16 14 -7 60 -11 22 -20 45 -20 52 0 16 56 49 73
42 6 -2 24 -31 39 -64 21 -44 32 -58 43 -54 9 4 14 9 13 13 -2 3 -21 43 -42
89 -21 45 -42 82 -45 81 -3 0 -17 -7 -31 -15z"/>
<path d="M2323 3546 c-18 -12 -73 -46 -122 -76 -50 -30 -91 -57 -91 -60 0 -3
4 -12 10 -20 8 -12 15 -11 48 8 22 12 46 22 53 22 8 0 26 -21 41 -45 43 -70
102 -82 154 -30 15 15 24 36 24 55 0 30 -35 105 -68 146 l-17 21 -32 -21z m56
-80 c37 -59 19 -106 -40 -106 -22 0 -34 8 -49 33 -29 46 -25 64 18 86 48 26
47 26 71 -13z"/>
<path d="M8457 3543 c-20 -19 1 -42 80 -88 94 -55 119 -81 108 -117 -22 -72
-68 -75 -173 -10 -99 62 -106 64 -120 42 -10 -17 -1 -25 86 -76 120 -71 154
-75 201 -24 17 19 36 51 41 71 16 58 -5 87 -115 152 -103 62 -99 60 -108 50z"/>
<path d="M8244 3213 c-27 -37 -52 -73 -57 -80 -5 -8 11 -26 45 -51 29 -21 82
-60 116 -85 71 -52 77 -54 86 -31 6 17 -19 54 -35 54 -12 0 -49 32 -49 42 0 4
16 30 35 56 19 27 32 52 28 55 -14 15 -29 5 -58 -38 -16 -25 -36 -45 -43 -45
-19 0 -72 42 -72 56 0 7 6 19 13 26 26 26 66 92 61 100 -10 16 -21 7 -70 -59z"/>
<path d="M2414 3221 c-77 -52 -102 -95 -85 -152 33 -111 158 -122 254 -21 73
76 36 191 -68 207 -36 6 -47 2 -101 -34z m150 -33 c29 -41 20 -73 -31 -117
-69 -62 -120 -68 -156 -19 -18 24 -18 30 -7 58 8 18 34 46 64 66 61 41 107 45
130 12z"/>
<path d="M2682 2987 c-30 -14 -37 -49 -23 -106 23 -84 24 -116 6 -131 -15 -12
-21 -12 -43 1 -39 21 -60 64 -45 88 10 15 9 22 -6 35 -23 21 -31 12 -31 -38 0
-113 135 -182 178 -92 12 24 11 36 -8 96 -27 83 -24 104 13 108 42 5 68 -23
65 -70 -2 -40 12 -65 31 -54 6 4 11 26 11 49 -1 77 -85 142 -148 114z"/>
<path d="M7973 2880 c-57 -35 -83 -120 -45 -152 32 -29 56 -29 121 2 34 17 68
30 75 30 24 0 48 -37 41 -61 -12 -36 -31 -49 -73 -49 -23 0 -45 -6 -52 -15
-16 -19 -11 -25 31 -31 48 -8 113 40 130 96 11 36 10 44 -8 68 -28 38 -72 40
-139 7 -58 -28 -81 -29 -97 -4 -24 38 27 98 72 85 23 -8 45 9 38 28 -9 22 -55
20 -94 -4z"/>
<path d="M2907 2757 c-16 -18 -61 -65 -100 -104 -63 -65 -70 -75 -56 -88 13
-13 26 -3 118 89 90 90 103 107 91 120 -17 21 -21 20 -53 -17z"/>
<path d="M7735 2646 c-58 -53 -77 -77 -69 -85 7 -8 17 -4 34 14 31 33 43 32
76 -7 15 -18 53 -62 86 -97 54 -60 60 -63 75 -48 15 14 10 23 -65 108 -45 50
-82 100 -82 110 0 10 9 23 20 29 19 10 29 50 12 50 -4 0 -43 -33 -87 -74z"/>
<path d="M3025 2680 c-6 -10 31 -49 48 -50 19 -1 0 -28 -79 -117 -78 -88 -84
-97 -69 -112 17 -17 25 -11 146 126 l46 52 37 -26 c23 -15 42 -21 47 -16 6 6
-22 37 -72 81 -85 74 -93 79 -104 62z"/>
<path d="M7568 2504 c-15 -15 -12 -22 38 -88 30 -39 54 -77 54 -85 0 -16 -7
-14 -130 38 -93 39 -95 40 -114 21 -18 -18 -17 -21 64 -127 46 -59 86 -111 89
-116 4 -4 15 -1 25 6 16 12 13 19 -38 89 -84 114 -81 116 77 47 74 -32 92 -36
108 -26 10 6 19 15 19 19 0 6 -148 207 -169 230 -4 5 -14 1 -23 -8z"/>
<path d="M3236 2449 c-35 -28 -33 -59 9 -129 37 -61 43 -88 23 -108 -20 -20
-48 -14 -80 18 -23 23 -29 36 -24 55 5 18 1 27 -13 34 -22 12 -31 5 -31 -26 0
-86 126 -167 179 -114 32 32 27 83 -15 151 -30 49 -34 61 -24 79 16 31 63 28
90 -6 12 -15 19 -35 17 -45 -3 -9 3 -24 14 -34 17 -15 18 -15 25 11 10 41 -18
91 -65 115 -51 25 -72 25 -105 -1z"/>
<path d="M7255 2289 c-108 -70 -105 -51 -28 -180 37 -63 72 -119 77 -124 6 -8
35 5 90 37 45 27 82 53 84 58 8 23 -24 18 -77 -14 -32 -20 -61 -36 -64 -36 -8
0 -47 65 -47 79 0 6 22 25 49 42 33 20 48 35 44 45 -7 18 -3 19 -63 -18 l-52
-32 -24 27 c-13 16 -24 34 -24 42 0 8 21 26 48 41 65 38 72 44 65 60 -7 19 -9
18 -78 -27z"/>
<path d="M3594 2096 c-101 -95 -109 -104 -91 -116 16 -10 23 -8 47 15 l27 26
49 -29 c44 -26 49 -32 49 -65 0 -34 18 -67 30 -55 3 3 15 57 26 119 11 63 23
129 26 148 5 26 2 37 -12 47 -11 8 -24 14 -29 13 -6 0 -61 -47 -122 -103z
m116 19 c0 -25 -24 -105 -31 -105 -6 0 -24 7 -41 16 l-30 16 38 39 c32 33 64
50 64 34z"/>
<path d="M7028 2155 c-29 -16 -29 -23 -7 -164 16 -99 3 -99 -94 -4 -81 81 -82
82 -109 67 -16 -8 -28 -18 -28 -22 0 -4 28 -64 62 -134 56 -117 63 -125 82
-117 21 10 20 12 -23 100 -24 49 -41 93 -38 96 4 3 42 -29 85 -71 57 -55 84
-75 96 -70 12 5 16 14 12 33 -3 14 -8 67 -11 116 -8 109 0 106 60 -20 37 -77
41 -83 58 -71 17 13 14 22 -44 145 -34 72 -65 131 -68 131 -3 -1 -18 -7 -33
-15z"/>
<path d="M3872 1972 c-28 -65 -54 -125 -57 -133 -3 -8 3 -19 14 -26 18 -11 22
-5 57 77 21 50 43 90 49 90 10 0 22 -59 41 -192 5 -36 11 -47 27 -52 12 -3 22
-4 23 -3 8 10 116 268 113 271 -2 2 -12 6 -22 8 -14 2 -26 -15 -54 -79 -19
-46 -41 -83 -48 -83 -8 0 -18 38 -30 113 -16 105 -25 126 -51 127 -6 0 -34
-53 -62 -118z"/>
<path d="M6657 1993 c-13 -3 -16 -10 -12 -21 49 -120 66 -182 49 -182 -3 0
-37 26 -76 58 -114 92 -111 90 -135 81 l-22 -8 23 -63 c12 -35 35 -98 50 -140
16 -43 31 -78 35 -78 3 0 13 5 21 10 13 8 11 22 -17 100 -19 54 -28 92 -22 96
6 3 50 -28 99 -70 78 -68 91 -75 113 -67 l24 10 -50 140 c-28 78 -53 140 -56
140 -3 -1 -14 -3 -24 -6z"/>
<path d="M4196 1823 l-44 -138 41 -19 c59 -26 128 -26 164 0 40 30 70 117 64
186 -2 30 -60 76 -115 92 -30 9 -57 16 -60 16 -3 0 -25 -62 -50 -137z m157 60
c32 -30 17 -133 -27 -181 -17 -20 -28 -23 -60 -19 -21 3 -42 9 -47 14 -7 7 41
179 58 206 7 12 54 -1 76 -20z"/>
<path d="M6263 1870 c-91 -21 -117 -81 -84 -190 14 -46 30 -76 47 -89 47 -37
142 -23 187 26 13 15 14 27 5 71 -12 57 -11 57 -73 41 -48 -12 -53 -35 -8 -34
21 0 30 -7 37 -28 13 -35 -6 -55 -57 -64 -49 -8 -80 26 -97 106 -15 73 -8 109
26 121 37 14 52 12 75 -11 13 -13 27 -18 40 -14 25 8 24 17 -3 42 -29 26 -55
33 -95 23z"/>
<path d="M4730 1812 c-47 -24 -70 -68 -76 -149 -5 -64 -4 -70 23 -101 32 -38
81 -53 130 -40 32 8 63 41 63 65 0 20 -38 15 -50 -7 -23 -43 -91 -37 -116 11
-12 24 -13 40 -4 87 12 68 37 106 73 110 32 4 67 -14 67 -33 0 -20 38 -57 50
-50 14 9 1 56 -23 83 -11 12 -37 26 -56 32 -45 13 -40 13 -81 -8z"/>
<path d="M6002 1811 c-11 -6 -11 -17 -3 -47 5 -21 15 -75 21 -119 16 -113 20
-125 39 -125 10 0 20 2 23 5 2 3 -6 65 -18 137 -13 73 -24 139 -24 146 0 14
-19 16 -38 3z"/>
<path d="M5747 1775 c-50 -17 -69 -42 -62 -80 7 -40 35 -61 100 -76 63 -14 90
-37 80 -69 -7 -21 -41 -40 -71 -40 -8 0 -26 11 -40 25 -17 17 -32 24 -45 20
-25 -8 -24 -17 7 -46 20 -19 36 -24 78 -24 63 0 101 18 116 55 19 45 -7 83
-71 103 -28 9 -57 17 -64 17 -24 0 -46 36 -39 64 5 23 11 26 50 26 31 0 47 -5
57 -20 9 -13 20 -17 35 -13 18 4 20 8 11 25 -10 19 -66 48 -91 48 -7 -1 -30
-7 -51 -15z"/>
<path d="M5026 1749 c-30 -28 -38 -44 -47 -97 -10 -55 -9 -69 6 -103 24 -53
38 -62 102 -69 50 -6 57 -4 89 24 31 27 36 39 45 99 15 109 -21 166 -110 175
-45 4 -52 1 -85 -29z m134 -36 c19 -24 21 -36 16 -88 -7 -73 -31 -109 -74
-113 -52 -5 -72 25 -72 107 0 54 4 74 21 95 29 37 80 36 109 -1z"/>
<path d="M5529 1763 c-1 -5 -1 -47 1 -94 3 -130 -11 -128 -100 14 -41 63 -54
77 -75 77 l-26 0 3 -147 3 -148 25 0 25 0 -3 98 c-4 124 7 126 73 15 63 -106
73 -118 103 -118 18 0 23 4 18 16 -3 9 -6 78 -6 155 0 132 -1 139 -20 139 -11
0 -21 -3 -21 -7z"/>
</g>
</svg>
